<?xml version="1.0" encoding="UTF-8" standalone="no"?>
<!DOCTYPE svg PUBLIC "-//W3C//DTD SVG 1.1//EN" "http://www.w3.org/Graphics/SVG/1.1/DTD/svg11.dtd">
<svg width="100%" height="100%" viewBox="0 0 612 792" version="1.1" xmlns="http://www.w3.org/2000/svg" xmlns:xlink="http://www.w3.org/1999/xlink" xml:space="preserve" xmlns:serif="http://www.serif.com/" style="fill-rule:evenodd;clip-rule:evenodd;">
    <g transform="matrix(3.65034,-8.32667e-17,8.32667e-17,3.65034,-831.197,-989.668)">
        <path d="M265.275,420.958C265.004,431.159 269.634,443.432 278.085,451.883C286.536,460.334 298.809,464.964 309.01,464.693C319.212,464.964 331.485,460.334 339.936,451.883C348.387,443.432 353.017,431.159 352.746,420.958L352.746,339.735C353.017,329.533 348.387,317.261 339.936,308.81C331.485,300.358 319.212,295.729 309.01,296C298.809,295.729 286.536,300.358 278.085,308.81C269.634,317.261 265.004,329.533 265.275,339.735L265.275,420.958Z" style="fill-rule:nonzero;stroke:black;stroke-width:0.27px;"/>
    </g>
</svg>
