<?xml version="1.0" encoding="UTF-8" standalone="no"?>
<!DOCTYPE svg PUBLIC "-//W3C//DTD SVG 1.1//EN" "http://www.w3.org/Graphics/SVG/1.1/DTD/svg11.dtd">
<svg width="100%" height="100%" viewBox="0 0 405 746" version="1.1" xmlns="http://www.w3.org/2000/svg" xmlns:xlink="http://www.w3.org/1999/xlink" xml:space="preserve" xmlns:serif="http://www.serif.com/" style="fill-rule:evenodd;clip-rule:evenodd;">
    <g id="Artboard1" transform="matrix(0.678816,0,0,0.941348,0,0)">
        <rect x="0" y="0" width="595.421" height="792" style="fill:none;"/>
        <g transform="matrix(6.11219,-1.00539e-16,1.39423e-16,4.40756,-1591.02,-1280.4)">
            <path d="M265.275,420.958C265.004,431.159 269.634,443.432 278.085,451.883C286.536,460.334 298.809,464.964 309.01,464.693C319.212,464.964 331.485,460.334 339.936,451.883C348.387,443.432 353.017,431.159 352.746,420.958L352.746,339.735C353.017,329.533 348.387,317.261 339.936,308.81C331.485,300.358 319.212,295.729 309.01,296C298.809,295.729 286.536,300.358 278.085,308.81C269.634,317.261 265.004,329.533 265.275,339.735L265.275,420.958Z" style="fill-rule:nonzero;stroke:black;stroke-width:0.27px;"/>
        </g>
    </g>
</svg>
