<?xml version="1.0" encoding="UTF-8" standalone="no"?>
<!DOCTYPE svg PUBLIC "-//W3C//DTD SVG 1.1//EN" "http://www.w3.org/Graphics/SVG/1.1/DTD/svg11.dtd">
<svg width="100%" height="100%" viewBox="0 0 300 100" version="1.1" xmlns="http://www.w3.org/2000/svg" xmlns:xlink="http://www.w3.org/1999/xlink" xml:space="preserve" xmlns:serif="http://www.serif.com/" style="fill-rule:evenodd;clip-rule:evenodd;">
    <g transform="matrix(1,0,0,1,-147.691,-322.136)">
        <path d="M237.399,345.824L238.529,345.886L247.884,345.886L247.884,377.53C247.884,382.992 243.739,387.48 238.434,388.002C237.926,388.052 237.528,388.451 237.478,388.962C236.957,394.287 232.486,398.448 227.044,398.448L190.083,398.448C184.641,398.448 180.17,394.287 179.65,388.962C179.6,388.452 179.203,388.052 178.693,388.002C173.388,387.48 169.243,382.992 169.243,377.53L169.243,345.886L178.598,345.886L179.728,345.824L179.728,386.871C179.728,387.452 180.198,387.923 180.777,387.923L236.35,387.923C236.93,387.923 237.399,387.452 237.399,386.871L237.399,345.824Z"/>
    </g>
    <g transform="matrix(1,0,0,1,-147.691,-322.136)">
        <path d="M237.399,345.824L237.399,386.871C237.399,387.452 236.93,387.923 236.35,387.923L180.777,387.923C180.198,387.923 179.728,387.452 179.728,386.871L179.728,345.824L178.598,345.886L169.243,345.886L169.243,377.53C169.243,382.992 173.388,387.48 178.693,388.002C179.203,388.052 179.6,388.452 179.65,388.962C180.17,394.287 184.641,398.448 190.083,398.448L227.044,398.448C232.486,398.448 236.957,394.287 237.478,388.962C237.528,388.451 237.926,388.052 238.434,388.002C243.739,387.48 247.884,382.992 247.884,377.53L247.884,345.886L238.529,345.886L237.399,345.824Z" style="fill:none;fill-rule:nonzero;stroke:black;stroke-width:0.24px;"/>
    </g>
    <g transform="matrix(1,0,0,1,-147.691,-322.136)">
        <path d="M415.654,345.824L416.783,345.886L426.139,345.886L426.139,377.53C426.139,382.992 421.993,387.48 416.689,388.002C416.181,388.052 415.782,388.451 415.732,388.962C415.212,394.287 410.741,398.448 405.299,398.448L368.338,398.448C362.896,398.448 358.425,394.287 357.904,388.962C357.854,388.452 357.457,388.052 356.948,388.002C351.643,387.48 347.497,382.992 347.497,377.53L347.497,345.886L356.853,345.886L357.983,345.824L357.983,386.871C357.983,387.452 358.452,387.923 359.032,387.923L414.605,387.923C415.184,387.923 415.654,387.452 415.654,386.871L415.654,345.824Z"/>
    </g>
    <g transform="matrix(1,0,0,1,-147.691,-322.136)">
        <path d="M415.654,345.824L415.654,386.871C415.654,387.452 415.184,387.923 414.605,387.923L359.032,387.923C358.452,387.923 357.983,387.452 357.983,386.871L357.983,345.824L356.853,345.886L347.497,345.886L347.497,377.53C347.497,382.992 351.643,387.48 356.948,388.002C357.457,388.052 357.854,388.452 357.904,388.962C358.425,394.287 362.896,398.448 368.338,398.448L405.299,398.448C410.741,398.448 415.212,394.287 415.732,388.962C415.782,388.451 416.181,388.052 416.689,388.002C421.993,387.48 426.139,382.992 426.139,377.53L426.139,345.886L416.783,345.886L415.654,345.824Z" style="fill:none;fill-rule:nonzero;stroke:black;stroke-width:0.24px;"/>
    </g>
    <g transform="matrix(1,0,0,1,-147.691,-322.136)">
        <path d="M327.557,356.269C332.864,356.789 337.012,361.277 337.012,366.741L337.012,367.004C337.012,372.458 332.878,376.942 327.583,377.473C327.055,377.526 326.657,377.98 326.657,378.513L326.657,386.806C326.657,387.339 327.056,387.793 327.583,387.845C332.877,388.377 337.012,392.861 337.012,398.447L326.526,398.447L326.526,388.968C326.526,388.39 326.06,387.922 325.484,387.922L279.21,387.922C275.007,387.922 271.381,385.439 269.71,381.854C269.506,381.419 268.856,381.565 268.856,382.046L268.856,398.448L258.37,398.448L258.37,366.742C258.37,361.278 262.518,356.789 267.825,356.27C268.331,356.22 268.727,355.822 268.777,355.315C269.295,349.988 273.767,345.824 279.21,345.824L316.172,345.824C321.615,345.824 326.087,349.988 326.605,355.315C326.655,355.822 327.051,356.219 327.557,356.269ZM326.526,376.352L326.526,357.395C326.526,356.817 326.06,356.349 325.484,356.349L269.904,356.349C269.325,356.349 268.856,356.82 268.856,357.401L268.856,376.796C268.856,377.129 269.124,377.398 269.456,377.398L325.484,377.398C326.06,377.398 326.526,376.93 326.526,376.352Z"/>
    </g>
    <g transform="matrix(1,0,0,1,-147.691,-322.136)">
        <path d="M327.557,356.27C327.051,356.22 326.655,355.822 326.605,355.315C326.087,349.988 321.615,345.824 316.172,345.824L279.21,345.824C273.767,345.824 269.295,349.988 268.777,355.315C268.727,355.822 268.331,356.22 267.825,356.27C262.518,356.789 258.37,361.278 258.37,366.742L258.37,398.448L268.856,398.448L268.856,382.046C268.856,381.565 269.506,381.419 269.71,381.854C271.381,385.439 275.007,387.922 279.21,387.922L325.484,387.922C326.06,387.922 326.526,388.39 326.526,388.968L326.526,398.447L337.012,398.447C337.012,392.861 332.877,388.377 327.583,387.845C327.056,387.793 326.657,387.339 326.657,386.806L326.657,378.513C326.657,377.98 327.055,377.526 327.583,377.473C332.878,376.942 337.012,372.458 337.012,367.004L337.012,366.741C337.012,361.277 332.864,356.788 327.557,356.268L327.557,356.27Z" style="fill:none;fill-rule:nonzero;stroke:black;stroke-width:0.24px;"/>
    </g>
    <g transform="matrix(1,0,0,1,-147.691,-322.136)">
        <path d="M326.526,376.352C326.526,376.93 326.06,377.398 325.484,377.398L269.456,377.398C269.124,377.398 268.856,377.129 268.856,376.796L268.856,357.401C268.856,356.82 269.325,356.349 269.904,356.349L325.484,356.349C326.06,356.349 326.526,356.817 326.526,357.395L326.526,376.352Z" style="fill:none;fill-rule:nonzero;stroke:black;stroke-width:0.24px;"/>
    </g>
</svg>
